<svg data-name="Layer 1" xmlns="http://www.w3.org/2000/svg" viewBox="0 0 919.13 315.95"><path d="M1.13 129.95h285m23 0h219m7 0h217m31 0h126m-908 97h285m23 0h217m9 0h217m31 0h126" fill="none" stroke="#afb4c6" stroke-miterlimit="10" stroke-width="2" stroke-dasharray="5"/><g font-size="18" fill="#445de9" font-family="HelveticaNeue-Bold, Helvetica Neue" font-weight="700"><text transform="translate(.13 182.91)" style="isolation:isolate">형태</text><text transform="translate(.13 272.91)" style="isolation:isolate">방법</text><text transform="translate(.13 102.91)" letter-spacing="-.05em" style="isolation:isolate">값</text></g><path d="M401.53 80.65c-31.1 7.7-58.2 18.1-79.5 30.4-16.3 9.4-29.2 20-37.9 31.4m105.4-61.8c3.9 0 7.3.1 11.2.1-3.4 1.9-6.3 3.6-9.6 5.6m-105.2 128.3c21.3 25.8 63.9 47.2 118.9 60.3m-113-49.7c-2-3.5-3.6-6.5-5.3-10 3.3 2.1 6.1 3.8 9.5 5.7m364.7 53.7c53.5-13 95.2-33.8 116.6-58.8m-5.8 10.3c2-3.4 3.7-6.4 5.5-10-3.3 2.1-6.2 3.8-9.6 5.6m9-83.7c-13.8-15.7-35.7-29.8-63.6-41.2a353.91 353.91 0 00-50-16.1m12.3 0c-3.9 0-7.3 0-11.3.1 3.4 2 6.3 3.6 9.6 5.7m-142.8 25.4v128m-3-116.4c1.1-3.8 2-7 3-10.8 1.1 3.8 2 7 3 10.8m-124.5 55.4h246m-235.1 3c-3.6-1-6.6-1.9-10.2-3 3.6-1 6.6-1.9 10.2-3m224.9 6c3.6-1 6.6-1.9 10.2-3-3.6-1-6.6-1.9-10.2-3" fill="none" stroke="#445de9" stroke-miterlimit="10" stroke-width="1.94"/><path d="M426.13 106.95a16 16 0 01-16-16v-35a16 16 0 0116-16h212a16 16 0 0116 16v35a16 16 0 01-16 16z" fill="#445de9" opacity=".4" style="isolation:isolate"/><path d="M426.13 102.95a12 12 0 01-12-12v-35a12 12 0 0112-12h212a12 12 0 0112 12v35a12 12 0 01-12 12z" fill="#445de9" opacity=".6" style="isolation:isolate"/><path d="M638.13 47.95h-212a8 8 0 00-8 8v35a8 8 0 008 8h212a8 8 0 008-8v-35a8 8 0 00-8-8z" fill="#445de9"/><text transform="translate(508.13 76.92)" font-size="18" fill="#fff" font-family="HelveticaNeue, Helvetica Neue" style="isolation:isolate">응답성</text><path d="M247.93 46.9a11.23 11.23 0 01-11.2-11.2V11.25a11.23 11.23 0 0111.2-11.2h148.4a11.23 11.23 0 0111.2 11.2v24.5a11.23 11.23 0 01-11.2 11.15z" fill="#445de9" opacity=".4" style="isolation:isolate"/><path d="M247.93 44.1a8.42 8.42 0 01-8.4-8.4V11.25a8.42 8.42 0 018.4-8.4h148.4a8.42 8.42 0 018.4 8.4v24.5a8.42 8.42 0 01-8.4 8.4z" fill="#445de9" opacity=".6" style="isolation:isolate"/><path d="M396.33 5.6h-148.4a5.62 5.62 0 00-5.6 5.65v24.5a5.62 5.62 0 005.6 5.6h148.4a5.62 5.62 0 005.6-5.6v-24.5a5.57 5.57 0 00-5.6-5.65z" fill="#445de9"/><text transform="translate(286.53 26.88)" font-size="12.6" fill="#fff" font-family="HelveticaNeue, Helvetica Neue" style="isolation:isolate">유지할 수있는</text><path d="M667.93 46.9a11.23 11.23 0 01-11.2-11.2V11.25a11.23 11.23 0 0111.2-11.2h148.4a11.23 11.23 0 0111.2 11.2v24.5a11.23 11.23 0 01-11.2 11.15z" fill="#445de9" opacity=".4" style="isolation:isolate"/><path d="M667.93 44.1a8.42 8.42 0 01-8.4-8.4V11.25a8.42 8.42 0 018.4-8.4h148.4a8.42 8.42 0 018.4 8.4v24.5a8.42 8.42 0 01-8.4 8.4z" fill="#445de9" opacity=".6" style="isolation:isolate"/><path d="M816.33 5.6h-148.4a5.62 5.62 0 00-5.6 5.65v24.5a5.62 5.62 0 005.6 5.6h148.4a5.62 5.62 0 005.6-5.6v-24.5a5.57 5.57 0 00-5.6-5.65z" fill="#445de9"/><text transform="translate(716.53 26.88)" font-size="12.6" fill="#fff" font-family="HelveticaNeue, Helvetica Neue" style="isolation:isolate">확장 가능</text><path d="M691.13 210.95a16 16 0 01-16-16v-35a16 16 0 0116-16h212a16 16 0 0116 16v35a16 16 0 01-16 16z" fill="#445de9" opacity=".4" style="isolation:isolate"/><path d="M691.13 206.95a12 12 0 01-12-12v-35a12 12 0 0112-12h212a12 12 0 0112 12v35a12 12 0 01-12 12z" fill="#445de9" opacity=".6" style="isolation:isolate"/><path d="M903.13 151.95h-212a8 8 0 00-8 8v35a8 8 0 008 8h212a8 8 0 008-8v-35a8 8 0 00-8-8z" fill="#445de9"/><text transform="translate(774.13 183.18)" font-size="18" fill="#fff" font-family="HelveticaNeue-Medium, Helvetica Neue" style="isolation:isolate">탄력성</text><path d="M426.13 315.95a16 16 0 01-16-16v-35a16 16 0 0116-16h212a16 16 0 0116 16v35a16 16 0 01-16 16z" fill="#445de9" opacity=".4" style="isolation:isolate"/><path d="M426.13 311.95a12 12 0 01-12-12v-35a12 12 0 0112-12h212a12 12 0 0112 12v35a12 12 0 01-12 12z" fill="#445de9" opacity=".6" style="isolation:isolate"/><path d="M638.13 256.95h-212a8 8 0 00-8 8v35a8 8 0 008 8h212a8 8 0 008-8v-35a8 8 0 00-8-8z" fill="#445de9"/><text transform="translate(485.24 287.92)" font-size="18" fill="#fff" font-family="HelveticaNeue-Medium, Helvetica Neue" style="isolation:isolate">메시지 구동</text><g><path d="M160.13 210.95a16 16 0 01-16-16v-35a16 16 0 0116-16h212a16 16 0 0116 16v35a16 16 0 01-16 16z" fill="#445de9" opacity=".4" style="isolation:isolate"/><path d="M160.13 206.95a12 12 0 01-12-12v-35a12 12 0 0112-12h212a12 12 0 0112 12v35a12 12 0 01-12 12z" fill="#445de9" opacity=".6" style="isolation:isolate"/><path d="M372.13 151.95h-212a8 8 0 00-8 8v35a8 8 0 008 8h212a8 8 0 008-8v-35a8 8 0 00-8-8z" fill="#445de9"/><text transform="translate(237.13 182.91)" font-size="18" fill="#fff" font-family="HelveticaNeue-Medium, Helvetica Neue" style="isolation:isolate">유연성</text></g></svg>